<svg width="20" height="20" viewBox="0 0 20 20" fill="none" xmlns="http://www.w3.org/2000/svg">
<path d="M14.8265 18.7582C13.0056 19.7616 10.9173 20.1726 8.85205 19.9339C6.78678 19.6952 4.84724 18.8188 3.30325 17.4265C1.75926 16.0343 0.687596 14.1954 0.237337 12.1657C-0.212923 10.1361 -0.0193863 8.01652 0.791023 6.10196C1.60143 4.1874 2.98842 2.57302 4.75903 1.48342C6.52964 0.39381 8.59583 -0.116848 10.6702 0.0224817C12.7445 0.161811 14.7239 0.9442 16.3328 2.26081C17.9418 3.57742 19.1005 5.36277 19.6476 7.36852L16.7533 8.15796C16.3703 6.75394 15.5593 5.50419 14.433 4.58257C13.3067 3.66094 11.9212 3.11327 10.4691 3.01574C9.01708 2.91821 7.57075 3.27567 6.33132 4.03839C5.09189 4.80112 4.121 5.93118 3.55372 7.27137C2.98643 8.61156 2.85095 10.0952 3.16614 11.516C3.48132 12.9368 4.23148 14.224 5.31228 15.1986C6.39307 16.1732 7.75075 16.7867 9.19644 16.9537C10.6421 17.1208 12.1039 16.8331 13.3785 16.1307L14.8265 18.7582Z" fill="#305AB3"/>
<circle cx="10" cy="10" r="6" fill="#55A2D1"/>
</svg>
